# xmcd
# 
# Track frame offsets:
#     150
#     12460
#     22904
#     32038
#     48444
#     63624
#     77885
#     93372
#     107466
#     123790
#     135181
#     153064
#     168802
# 
# Disc length: 2455
# 
# Revision: 0
# Processed by: cddbd v1.5.2PL0 Copyright (c) Steve Scherf et al.
# Submitted via: fre:ac v1.0.31
# 
DISCID=8e09950d
DTITLE=Peter Tschernig - Irgendein Haken Ist Immer Dabei
DYEAR=1987
DGENRE=Country
TTITLE0=Ring Of Fire
TTITLE1=Country Music
TTITLE2=Es War Mal Wieder Schön
TTITLE3=Immer Wenn Ich Lüge
TTITLE4=Du Hast Gewonnen
TTITLE5=In Dem Haus,In Dem Er Jetzt Wohnt
TTITLE6=Irgendein Haken ist immer dabei
TTITLE7=Mein Bester Kumpel
TTITLE8=Jeden Vierten Sonntag
TTITLE9=Was Zuviel Ist ,Ist Zuviel
TTITLE10=Bewahr Dir Die Träume Der Kindheit
TTITLE11=Nicht Alles,Was Man Glänzen Sieht
TTITLE12=A Good Hearted Woman
EXTD=
EXTT0=
EXTT1=
EXTT2=
EXTT3=
EXTT4=
EXTT5=
EXTT6=
EXTT7=
EXTT8=
EXTT9=
EXTT10=
EXTT11=
EXTT12=
PLAYORDER=
